<svg width="24" height="24" viewBox="0 0 24 24" fill="none" xmlns="http://www.w3.org/2000/svg">
<rect width="24" height="24" rx="12" fill="white"/>
<path d="M18.244 8.57a6.5 6.5 0 01-1.837.502 3.22 3.22 0 001.407-1.77c-.618.362-1.304.624-2.032.77a3.2 3.2 0 00-5.456 2.917 9.08 9.08 0 01-6.588-3.34 3.137 3.137 0 00-.433 1.612c0 1.113.567 2.095 1.425 2.67a3.19 3.19 0 01-1.45-.4v.039a3.205 3.205 0 002.567 3.141 3.247 3.247 0 01-1.44.055 3.215 3.215 0 002.996 2.226 6.417 6.417 0 01-3.972 1.371c-.254 0-.507-.015-.76-.044a9.1 9.1 0 004.92 1.437c5.9 0 9.12-4.885 9.12-9.123 0-.137 0-.274-.01-.41A6.47 6.47 0 0018.5 8.59z" fill="black"/>
</svg> 